<svg xmlns="http://www.w3.org/2000/svg" width="180" height="300" viewBox="0 0 180 300">
  <defs>
    <style>
      .cls-1 {
        fill: #006837;
      }

      .cls-2 {
        fill: #fff;
      }
    </style>
  </defs>
  <g id="レイヤー_2" data-name="レイヤー 2">
    <g id="レイヤー_2-2" data-name="レイヤー 2">
      <g>
        <rect class="cls-1" width="180" height="300"/>
        <g>
          <path class="cls-2" d="M40.66,115.9a1.17,1.17,0,0,1-1.32.4c-1.06.72-2.28,1.45-3.34,2,5.48,2,3.2,6.67.4,4.82a11.61,11.61,0,0,0-2.94-4.78V132.3a4.17,4.17,0,0,1-3.07,1H29.7v-12.9a28.81,28.81,0,0,1-4.75,3l-.3-.39a37.44,37.44,0,0,0,9.44-13.21H25.77l-.3-.92h4.26v-6.24l4.95.43c-.06.46-.33.79-1.19.93v4.88H34l2.11-2,3.4,2.93c-.26.33-.56.43-1.35.5A28.13,28.13,0,0,1,33.46,117v.72c.59.1,1.16.23,1.65.36a44.34,44.34,0,0,0,2.28-4Zm15.71-8.09a2.26,2.26,0,0,1-1.49.63c-.2,14.36-.69,20.53-2.54,22.58a5.94,5.94,0,0,1-4.75,1.85,4.09,4.09,0,0,0-.66-2.75,7,7,0,0,0-3.27-1.45v-.46c1.42.13,3.56.3,4.39.3a1.64,1.64,0,0,0,1.29-.46c1.25-1.23,1.61-8.06,1.84-20.24H46.79c-.33,10.83-.85,20.07-11.88,25.52l-.33-.37c7.79-7.06,8.19-15.64,8.35-25.15H38.28l-.3-1H50.82l2.08-2.18Z"/>
          <path class="cls-2" d="M89.08,112.7a2.53,2.53,0,0,1-1.26.63v15.9c0,2.38-.46,3.7-4.22,4a4.57,4.57,0,0,0-.56-2.34,3.09,3.09,0,0,0-2.22-1.06v-.46s2.38.13,3,.13.6-.2.6-.59V112.83H72.54v19.31c0,.4-1.32,1.19-2.81,1.19h-.49v-17.2c-1,.69-2.18,1.52-3.63,2.48v10.33c0,2.64-.5,4.06-4.52,4.45a5.3,5.3,0,0,0-.6-2.64,3.38,3.38,0,0,0-2.41-1.22v-.46s2.64.16,3.21.16.66-.13.66-.56V121c-.6.4-1.23.76-1.89,1.16a1.29,1.29,0,0,1-.82.89l-1.59-4.39c.9-.2,2.41-.53,4.3-1v-6.46H58.41l-.26-.93H62v-7.85l4.88.49c-.07.46-.4.79-1.22.92v6.44h.06l1.62-2.74s1.78,2,2.68,3.14l0,.06,2.87,1.22h2.78a2.36,2.36,0,0,1-1.39-.59,10.73,10.73,0,0,0-1.32-4.23L73,107H68.84l-.26-.93h8v-3.59l4.89.39c-.07.43-.3.73-1.16.89v2.31h3.11l2-2.77s2.28,1.88,3.63,3.17c-.1.36-.43.53-.92.53H82.21l3.56,1c-.13.39-.49.69-1.22.66a28.27,28.27,0,0,1-3.4,3.26h2.91l1.58-1.78Zm-23.47,3.93c1.19-.3,2.41-.66,3.63-1v-4.52H65.61Zm17,11.18a3.3,3.3,0,0,1-2.18.76H80v-1.15H77v1.25c0,.23-1.15.83-2.21.83h-.36V120L77,121.05v-3.43h-3.2l-.26-.93H77v-3.3l3.6.36c0,.33-.23.53-.73.63v2.31h.56l1.32-1.81A31.07,31.07,0,0,1,84,117.09c-.07.36-.37.53-.8.53h-3.4v3.5h.47l1.22-1.33L83.83,122a2.54,2.54,0,0,1-1.19.56ZM73.6,107c5.34,1.32,4.22,4.79,2.17,4.88H80A36.45,36.45,0,0,0,81,107ZM80,126.46v-4.39H77v4.39Z"/>
          <path class="cls-2" d="M112.61,114.42a4.12,4.12,0,0,1,2.24-.73c1.55.06,3.37,1.48,3.37,2.44a16.79,16.79,0,0,1-.26,2c-.14.63-.3,1.62-.57,2.71a20.1,20.1,0,0,1,2.84,2.05,3.51,3.51,0,0,1,1.32,2.87,1.63,1.63,0,0,1-1.71,1.71c-1.16,0-2.08-1.18-3.77-2.73-2.24,4.42-6.86,7-13.23,8l-.3-.59c5.65-2,9-5.35,10.76-9.64a16.86,16.86,0,0,0-10-3.43c-1.35,2.71-3,6.6-3.76,7.72-1.32,2-2.44,2.91-4.26,2.91s-3.3-3.11-3-5.85c.4-3.49,4.92-5.77,9-6.43,1.68-2.94,4.45-7.43,4.95-8.48.33-.66.06-.93-.5-.73a20.46,20.46,0,0,0-3.36,1.78,3.31,3.31,0,0,1-1.85,1c-1.45,0-3.24-2-3.33-3.17a7.46,7.46,0,0,1,.16-2l.46-.1c.63,1,1.06,1.69,2.05,1.69a22.14,22.14,0,0,0,5.31-1.26c1.29-.46,1.75-1.09,2.38-1.09,1.22,0,4,2,4,3.27,0,.89-1.39,1.36-2.41,2.38a41.26,41.26,0,0,0-4.82,6.47,27.07,27.07,0,0,1,9.9,2,16.91,16.91,0,0,0,.23-2.54c0-.59-.07-.86-.49-1.19a3.62,3.62,0,0,0-1.39-.59Zm-12.31,4.75c-3.27.53-6,2.31-6.41,4.16-.23,1.15.53,2.54,1.29,2.54s1.19-.37,1.92-1.42S99.34,120.85,100.3,119.17Z"/>
          <path class="cls-2" d="M153.21,125c-.24.3-.57.43-1.26.23-1.58.46-3.93,1-6,1.39a23.26,23.26,0,0,0,9.44,2.93v.4c-1.52.4-2.47,1.62-2.9,3.47-3.63-1.19-6.41-2.74-8.39-5.32v.1c-2.41,1.09-6,2.54-11.35,4.39a1.3,1.3,0,0,1-.89.79l-1.92-4.12c1.09-.07,2.78-.23,4.82-.47v-6.36h-3.6a18.13,18.13,0,0,1-6.73,10.85l-.33-.23c3.6-5.91,4-13.23,4-19.87V103l4.52,1.59h15.81l1.79-2,3.79,2.87a2.35,2.35,0,0,1-1.35.66v5.28a6.75,6.75,0,0,1-3.24.86h-.66v-1.19H132v2.11c0,.89,0,1.79,0,2.74h4v-4.19l4.62.43c0,.36-.26.63-.95.76v3h4.32v-4.12l4.62.43c-.06.36-.26.66-1,.79v2.9h1.92l1.81-2.47s2.08,1.71,3.33,2.9c-.09.37-.46.53-.92.53h-6.14v4.59H150l1.85-2.48s2.05,1.72,3.3,2.91c-.1.36-.43.53-.89.53h-4.39Zm-17.27-3.53v-4.59h-4.09a30.77,30.77,0,0,1-.53,4.59Zm-4-16v4.66h16.73V105.5Zm6.37,22.91c1.75-.2,3.6-.4,5.48-.63a17.07,17.07,0,0,1-2.51-5.34h-3Zm1.29-11.52v4.59h4.32v-4.59Zm2.37,5.55a10.6,10.6,0,0,0,3.14,3.66,56.78,56.78,0,0,0,4.36-3.66Z"/>
        </g>
        <g>
          <path class="cls-2" d="M51.93,145v9.23H50.84v-.68H45.66v.72h-1V145Zm-6.27,1v2.68h5.18V146Zm5.18,6.49v-2.79H45.66v2.79Z"/>
          <path class="cls-2" d="M60.39,147.51a9.79,9.79,0,0,0,4,4.23,5.09,5.09,0,0,0-.77.9,10.7,10.7,0,0,1-3.89-4.22v2.94h2v1h-2v2H58.69v-2h-2v-1h2v-2.93a11.26,11.26,0,0,1-3.87,4.25,6,6,0,0,0-.73-.85,10.19,10.19,0,0,0,4-4.32H54.48v-1h4.21v-2.22h1.08v2.22H64v1Z"/>
          <path class="cls-2" d="M70.69,146.61a9.94,9.94,0,0,0,4.73,2.83,5.19,5.19,0,0,0-.58.94,11.58,11.58,0,0,1-4.62-2.88,11.27,11.27,0,0,1-4.57,2.94,4,4,0,0,0-.54-.86,9.84,9.84,0,0,0,4.54-3Zm-3-.52H65.44v-1h2.28v-.88h1v.88h2.93v-.88h1v.88h2.39v1H72.67v1.07h-1v-1.07H68.73v1.07h-1Zm.93,5.64a7.65,7.65,0,0,1-2.27,2.39,5.42,5.42,0,0,0-.88-.68,5.82,5.82,0,0,0,2.08-2Zm2-.76v3.38h-1V151H66.78V150h2.89v-1.2h1V150h3V151Zm1.85.42a15.09,15.09,0,0,1,2.28,2.06l-.88.61a14.27,14.27,0,0,0-2.22-2.12Z"/>
          <path class="cls-2" d="M80.26,150.7a9.86,9.86,0,0,1-.83,2.83,4.32,4.32,0,0,0-.86-.43,7.69,7.69,0,0,0,.75-2.58Zm2.92-.4a5.87,5.87,0,0,0-.3-.64c-.39,0-.8.06-1.2.09v4.59h-1v-4.52l-2,.13-.11-1,.92,0a10.59,10.59,0,0,0,.7-.85,12.17,12.17,0,0,0-1.58-1.54l.5-.7.4.32a14.59,14.59,0,0,0,1.07-2l1,.38a23.92,23.92,0,0,1-1.4,2.1c.24.23.45.45.62.64A17.4,17.4,0,0,0,82,145.47l.94.45a34.74,34.74,0,0,1-2.31,3l1.76-.07c-.18-.28-.35-.55-.53-.8l.75-.37A10.47,10.47,0,0,1,84,149.87Zm5.6,2.7v1h-5.9v-1h0a13.23,13.23,0,0,0-.8-2.27l.84-.28a11.34,11.34,0,0,1,.84,2.21l-.85.33h2.49v-6.64H83.3v-1h5.29v1H86.44V153Z"/>
          <path class="cls-2" d="M95.17,146.61a9.94,9.94,0,0,0,4.73,2.83,5.19,5.19,0,0,0-.58.94,11.58,11.58,0,0,1-4.62-2.88,11.27,11.27,0,0,1-4.57,2.94,4,4,0,0,0-.54-.86,9.84,9.84,0,0,0,4.54-3Zm-3-.52H89.92v-1H92.2v-.88h1v.88h2.93v-.88h1v.88h2.39v1H97.15v1.07h-1v-1.07H93.21v1.07h-1Zm.92,5.64a7.62,7.62,0,0,1-2.26,2.39,5.42,5.42,0,0,0-.88-.68,5.82,5.82,0,0,0,2.08-2Zm2.06-.76v3.38h-1V151h-2.9V150h2.9v-1.2h1V150h3V151Zm1.85.42a15.09,15.09,0,0,1,2.28,2.06l-.88.61a14.27,14.27,0,0,0-2.22-2.12Z"/>
          <path class="cls-2" d="M112.63,146.18v5.25h-1.07v-.59H108.7v3.5h-1.06v-3.5h-2.85v.65h-1v-5.31h3.88v-1.92h1.06v1.92Zm-5,3.66v-2.66h-2.85v2.66Zm3.92,0v-2.66H108.7v2.66Z"/>
          <path class="cls-2" d="M123.74,144.72v9.63h-1.09v-.54h-7v.54h-1v-9.63Zm-1.09,8.15v-7.2h-7v7.2Zm-.51-1.7V152h-5.87v-.85h2.39v-1.63h-2v-.87h2v-1.33h-2.23v-.9h5.49v.9h-2.3v1.33h2v.87h-2v1.63h1.51a6.63,6.63,0,0,0-1-1.2l.64-.35a7.9,7.9,0,0,1,1,1.14l-.67.41Z"/>
          <path class="cls-2" d="M130.65,146.61a9.94,9.94,0,0,0,4.73,2.83,5.19,5.19,0,0,0-.58.94,11.58,11.58,0,0,1-4.62-2.88,11.27,11.27,0,0,1-4.57,2.94,4,4,0,0,0-.54-.86,9.84,9.84,0,0,0,4.54-3Zm-3-.52H125.4v-1h2.28v-.88h1v.88h2.93v-.88h1v.88H135v1h-2.39v1.07h-1v-1.07h-2.93v1.07h-1Zm.93,5.64a7.65,7.65,0,0,1-2.27,2.39,5.42,5.42,0,0,0-.88-.68,5.82,5.82,0,0,0,2.08-2Zm2-.76v3.38h-1V151h-2.89V150h2.89v-1.2h1V150h3V151Zm1.85.42a15.09,15.09,0,0,1,2.28,2.06l-.88.61a14.27,14.27,0,0,0-2.22-2.12Z"/>
        </g>
        <g>
          <path class="cls-2" d="M32.77,275.73v6.94c0,.14-.48.4-.9.4h-.21v-7.34H30.44l-.09-.34h1.31v-3.46l1.54.17c0,.17-.12.29-.43.34v2.95h.28l.56-.83s.64.57,1,1c0,.13-.15.19-.32.19Zm9,2.73a.8.8,0,0,1-.47.19c-.07,2.54-.25,3.58-.73,4a1.75,1.75,0,0,1-1.14.36,1,1,0,0,0-.15-.66,1.51,1.51,0,0,0-.73-.31v-.19c.31,0,.81.07,1,.07a.4.4,0,0,0,.34-.11c.24-.22.39-1.21.45-3.28h-.91A5.85,5.85,0,0,1,37,283l-.17-.15a6.94,6.94,0,0,0,1.57-4.33H37.5a1.06,1.06,0,0,1-.39.12c-.07,2.62-.25,3.62-.69,4a1.6,1.6,0,0,1-1.07.35.84.84,0,0,0-.16-.62,1.19,1.19,0,0,0-.63-.28v-.2c.27,0,.71.06.91.06s.24,0,.32-.11.36-1.17.42-3.33h-.79A6.07,6.07,0,0,1,33.24,283l-.18-.17a7.33,7.33,0,0,0,1.43-4.28h-1l-.11-.35h1.08c0-.48,0-.94,0-1.38l1.37.12c0,.14-.12.26-.38.31,0,.3,0,.61-.06.95h.64l.5-.5.74.58,0-.08h1.15c0-.48,0-.95,0-1.4l1.4.12c0,.15-.11.27-.38.31,0,.31,0,.63-.06,1h.77l.53-.53Zm-7.49-5.09h2.39a7,7,0,0,0,.18-1.44l1.56.22c0,.18-.18.27-.44.3a9.37,9.37,0,0,1-.19.92h1.62l.51-.53,1,.84a.68.68,0,0,1-.45.18c-.14,1.32-.4,2.11-.88,2.41a2,2,0,0,1-1.19.29.88.88,0,0,0-.19-.66,2,2,0,0,0-.87-.32v-.18c.38,0,1,.07,1.28.07a.55.55,0,0,0,.37-.08,3.07,3.07,0,0,0,.47-1.67h-1.8a5.24,5.24,0,0,1-3.79,3.17l-.1-.16a4.7,4.7,0,0,0,2.8-3H34.34Z"/>
          <path class="cls-2" d="M42.5,277a3.55,3.55,0,0,0,2.12-2.39H42.77l-.1-.34h2a7.38,7.38,0,0,0,.09-.85H43l-.09-.35h2c0-.34,0-.7,0-1.09l1.46.13c0,.16-.12.27-.37.3,0,.23,0,.45,0,.66h.44l.54-.64s.61.45,1,.8c0,.13-.15.19-.32.19H45.85a7.29,7.29,0,0,1-.11.85h.63l.55-.68s.63.48,1,.84a.3.3,0,0,1-.32.18h-2a2.67,2.67,0,0,1-.09.26c2.46.26,1.94,2,1,1.49a4.6,4.6,0,0,0-1.13-1.23,2.74,2.74,0,0,1-.79,1l1.15.47h4.51l.55-.58,1.15.87a.89.89,0,0,1-.44.23V281a1.62,1.62,0,0,1-1,.3h-.19v-.41H45.72v.28c0,.1-.49.36-1,.36h-.17v-5.34a6.22,6.22,0,0,1-1.94,1Zm.1,6a12.81,12.81,0,0,0,4-1.91l1.33.91c-.11.12-.33.16-.66.07a15.08,15.08,0,0,1-4.63,1.09Zm3.12-6v1h4.71v-1Zm4.71,2.28v-1H45.72v1Zm0,1.32v-1H45.72v1Zm.35-5.94a4.91,4.91,0,0,0,2.71,1.2v.13a1.11,1.11,0,0,0-.73.94,4.31,4.31,0,0,1-2.29-2.23c-.35.81-1.08,1.46-2.75,1.93l-.12-.2a3,3,0,0,0,1.83-1.77H48.08l-.09-.34h1.54a4.48,4.48,0,0,0,.11-.85H48.18l-.1-.35h1.58c0-.33,0-.7,0-1.09l1.47.13c0,.15-.13.27-.37.3,0,.23,0,.45,0,.66h.69l.56-.68s.64.48,1.05.84c0,.13-.16.19-.33.19h-2a3.77,3.77,0,0,1-.14.85h1.13l.58-.72s.67.5,1.08.88a.3.3,0,0,1-.31.18Zm-2.09,6.75c6.35.23,4.38,2.38,3.23,1.6a9.85,9.85,0,0,0-3.26-1.42Z"/>
          <path class="cls-2" d="M60,274.12a.93.93,0,1,1-.92.93A.93.93,0,0,1,60,274.12Zm0,5.66a.93.93,0,0,1,.94.93.93.93,0,0,1-1.86,0A.93.93,0,0,1,60,279.78Z"/>
          <path class="cls-2" d="M73.15,272.38c0,.15-.21.21-.55.25,1.08,1.53,3.21,2.61,5.15,3.32v.17a1.41,1.41,0,0,0-1,1.08,9.61,9.61,0,0,1-4.38-4.44,14.92,14.92,0,0,1-6,4.91l-.09-.16c2-1.28,4.37-3.86,5-5.63Zm2.95,9s.81.63,1.31,1.07a.31.31,0,0,1-.33.19H66.88l-.11-.35h4.58v-2.58h-3l-.09-.34h3.14v-2.28H68.58l-.08-.35h5.3l.64-.78s.75.54,1.18.94a.29.29,0,0,1-.31.19H72.55v2.28H74.3l.68-.84s.77.58,1.25,1a.3.3,0,0,1-.32.2H72.55v2.58h2.83Z"/>
          <path class="cls-2" d="M88.29,273.48a.93.93,0,0,1-.49.25v8.79a1.62,1.62,0,0,1-1,.39h-.19v-1.05H81.47v.69c0,.15-.46.44-1,.44h-.21V272.64l1.27.53h4.9l.61-.66Zm-6.82,0v3.75h5.11v-3.75Zm5.11,8v-3.9H81.47v3.9Z"/>
          <path class="cls-2" d="M96.78,275.13a10.39,10.39,0,0,0,4.91,4.59l0,.13a1.38,1.38,0,0,0-1.06,1,10.53,10.53,0,0,1-4.08-5.74v5h.68l.66-.92s.74.62,1.18,1.08c0,.13-.15.19-.32.19h-2.2v2.19c0,.14-.46.36-.93.36h-.23v-2.55H93l-.1-.35h2.46V276.5a11.64,11.64,0,0,1-4.9,4.49l-.12-.16a12.64,12.64,0,0,0,4.25-5.7h-4l-.09-.34h4.9v-2.86l1.66.18c0,.18-.14.33-.5.37v2.31h2.92l.74-1s.84.66,1.33,1.12c0,.14-.16.19-.33.19Z"/>
          <path class="cls-2" d="M106.81,278.22a7.14,7.14,0,0,1,3.17-.83,2.31,2.31,0,0,1,2.55,2.34,2.37,2.37,0,0,1-2.57,2.32,2.57,2.57,0,0,1-2.27-1.46l.16-.17a2.72,2.72,0,0,0,1.86.72,1.62,1.62,0,0,0,1.76-1.68c0-.85-.51-1.58-1.78-1.58a6,6,0,0,0-2.87,1c.06,1.7.22,2.11.22,2.57s-.41,1.24-.84,1.24-.37-.44-.75-.8a8.82,8.82,0,0,0-1.17-.92c-.35.36-.48.54-.68.54a.7.7,0,0,1-.48-.24.93.93,0,0,1-.28-.67c0-.39.08-.48.4-.47a1,1,0,0,0,.7-.16c.4-.21,1.31-.92,2.14-1.4v-2.1a6,6,0,0,1-1.29.2c-.67,0-1.24-.21-1.65-1.41l.18-.13c.59.56.83.68,1.4.67a6.48,6.48,0,0,0,1.36-.25c0-.79,0-1.51,0-1.81s-.07-.38-.27-.45a2.59,2.59,0,0,0-.82-.12l0-.2a1.67,1.67,0,0,1,1-.33c.55,0,1.4.41,1.4.74s-.19.5-.27.88-.1.58-.15,1c.77-.31,1.1-.62,1.31-.64s.78,0,.8.46c0,.21-.15.39-.43.54a17.13,17.13,0,0,1-1.76.65c0,.5,0,1,0,1.5Zm-.73,1.16a16.09,16.09,0,0,0-1.55,1.37,13,13,0,0,0,1.21.51c.25.09.34,0,.34-.24Zm3.67-5.11a3.74,3.74,0,0,1,1.67-.14,2.18,2.18,0,0,1,1.94,1.81.52.52,0,0,1-.49.61c-.29,0-.48-.32-.83-.28a7.44,7.44,0,0,0-1,.3l-.1-.18a8.73,8.73,0,0,0,.92-.66.32.32,0,0,0,0-.46,2.45,2.45,0,0,0-2.14-.75Z"/>
          <path class="cls-2" d="M121.05,274.56c0,.15-.18.23-.54.26,1.06,1.38,3.19,2.29,5.15,2.74v.19a1.34,1.34,0,0,0-.94,1.07A7.7,7.7,0,0,1,120.3,275a11.41,11.41,0,0,1-6,4.18l-.07-.16c2.19-1,4.4-3.2,4.93-4.85Zm-6.55-.78-.08-.35h3V272l1.53.14c0,.17-.12.27-.42.32v1h2.81V272l1.56.14c0,.17-.12.27-.43.32v1h1.21l.67-.87s.75.6,1.17,1c0,.13-.14.19-.31.19h-2.74v1c0,.11-.42.28-.95.29h-.18v-1.25h-2.81v1c0,.12-.44.28-.93.28h-.18v-1.3Zm.53,8.69a8.25,8.25,0,0,0,2.52-3l1.39.7c-.07.12-.18.19-.45.14a8.13,8.13,0,0,1-3.35,2.35Zm5.47-3.6v3.91c0,.09-.49.29-.9.29h-.21v-4.2h-2.81l-.1-.35h2.91v-1.6l1.51.15c0,.14-.11.26-.4.31v1.14h1l.63-.78s.71.53,1.15.93a.3.3,0,0,1-.32.2Zm.74.77c4.05.77,3.51,3.35,2.22,2.7a7.83,7.83,0,0,0-2.32-2.6Z"/>
          <path class="cls-2" d="M129.44,277.43v5.36c0,.07-.33.27-.86.27h-.16v-4a.76.76,0,0,1-.31.09,8,8,0,0,1-1.58,2.87l-.19-.1a13.27,13.27,0,0,0,.82-3.39l1.26.32v-1.17c-.4.12-.86.24-1.36.36a.41.41,0,0,1-.3.26l-.39-1.17c.29,0,.75,0,1.29-.06.7-1.15,1.49-2.61,2-3.68L131,274c-.07.14-.23.22-.49.18a31,31,0,0,1-2.45,2.86l1.94-.15a6,6,0,0,0-.55-1l.14-.07c2.58,1.17,1.64,3.12.71,2.3a3.09,3.09,0,0,0-.19-.91Zm.4-4.89c-.06.14-.22.22-.48.2a14.55,14.55,0,0,1-1.44,1.65c.86.76.24,1.68-.47,1.19a3.94,3.94,0,0,0-1-1.74l.12-.08a3.8,3.8,0,0,1,1,.39,23.23,23.23,0,0,0,.8-2.2Zm0,6c2.39,1.36,1.35,3.2.48,2.36a6.38,6.38,0,0,0-.62-2.3Zm7.17,3.21s.53.52.83.9c0,.13-.13.19-.3.19h-7.12l-.1-.35h1.41v-10l1.23.49h2.29l.6-.65,1.18.94a.94.94,0,0,1-.54.26v9h0Zm-4.22-8.42v2.76h2.59v-2.76Zm2.59,3.09h-2.59v2.81h2.59Zm-2.59,6.07h2.59v-2.93h-2.59Z"/>
          <path class="cls-2" d="M145.08,272.33c-.05.14-.21.21-.56.24a10.54,10.54,0,0,0,5.13,3.18l0,.18a1.32,1.32,0,0,0-.93,1,8.91,8.91,0,0,1-4.38-4.22,13.79,13.79,0,0,1-5.89,4.69l-.08-.17c2.06-1.19,4.35-3.63,4.92-5.36Zm1.76,5.61,1.25,1a1,1,0,0,1-.52.26v3.49a1.77,1.77,0,0,1-1,.31h-.21v-.84h-4.74v.57c0,.11-.52.37-1,.37h-.17v-5l1.26.53h4.54Zm-1.22-2.4s.78.6,1.26,1c0,.13-.16.19-.33.19h-5.28l-.09-.35h3.74Zm.75,6.23V279h-4.74v2.82Z"/>
        </g>
        <g>
          <path class="cls-2" d="M90,21.93A29.44,29.44,0,1,1,60.57,51.36,29.46,29.46,0,0,1,90,21.93m0-4.2a33.64,33.64,0,1,0,33.64,33.63A33.64,33.64,0,0,0,90,17.73Z"/>
          <path class="cls-2" d="M94.91,39.55c-.15.64-.78,1-2.39,1.13,4.39,5.6,13.37,8.63,20.93,10v.73A6.93,6.93,0,0,0,109,56.92c-8-3.12-14.3-8.2-17.27-15.71-4.49,7.22-14.34,14.1-24.93,17.27l-.24-.58c9-4.54,17.66-13.66,19.61-20.4ZM67.54,36.14l-.34-1.42H78.91V28.48l7.27.63c-.1.69-.44,1.12-1.71,1.32v4.29H95.1V28.48l7.42.63c0,.69-.44,1.12-1.71,1.32v4.29h3.76l3-4s3.36,2.73,5.26,4.64c-.09.53-.63.78-1.31.78H100.81V40c0,.49-2.14,1.27-4.78,1.27H95.1V36.14H84.47v4.14c0,.49-2.2,1.27-4.64,1.27h-.92V36.14ZM69.79,72A33.55,33.55,0,0,0,79.54,59l6.54,3.41c-.24.49-.68.78-1.85.64a32.65,32.65,0,0,1-14,9.46ZM92.71,57.07V72.78c0,.44-2.53,1.46-4.63,1.46h-1V57.07H76.13l-.39-1.42H87.05V49.31l7.27.63c-.14.64-.44,1.08-1.61,1.27v4.44h2.93l2.83-3.71s3.22,2.54,5.17,4.35c-.14.53-.68.78-1.36.78Zm2.2,3c17.46,2.34,14.54,14.2,8.49,11.08-1.66-3.81-5.66-8.05-8.88-10.74Z"/>
        </g>
      </g>
    </g>
  </g>
</svg>
