<?xml version="1.0" encoding="UTF-8"?>
<svg xmlns="http://www.w3.org/2000/svg" width="230.77" height="280.23" viewBox="0 0 230.77 280.23">
  <defs>
    <style>
      .cls-1 {
        fill: #608862;
      }

      .cls-2 {
        fill: #fff;
      }

      .cls-3 {
        fill: none;
        stroke: #000;
        stroke-miterlimit: 10;
        stroke-width: .5px;
      }
    </style>
  </defs>
  <g id="_イヤー_1" data-name="レイヤー 1"/>
  <g id="_イヤー_2" data-name="レイヤー 2">
    <g id="_イヤー_1-2" data-name="レイヤー 1">
      <g>
        <g>
          <path d="M217.15,9.83c-.76-.99-1.58-2.54-1.58-4.9s.81-3.92,1.58-4.94h.73c-.89,1.18-1.53,2.75-1.53,4.95s.66,3.68,1.53,4.88h-.73Z"/>
          <path d="M219.21,1.5l.88-.3v1.35h1.5v.69h-1.5v3.36c0,.74,.22,1.14,.79,1.14,.27,0,.45-.03,.6-.09l.05,.68c-.19,.09-.49,.14-.86,.14-1.41,0-1.45-1.28-1.45-1.9V3.25h-.9v-.69h.9V1.5Z"/>
          <path d="M227.41,8.37h-.88v-3.43c0-.95-.34-1.78-1.36-1.78-.76,0-1.53,.64-1.53,1.65v3.56h-.88V4.05c0-.6-.02-1.04-.04-1.5h.79l.05,.95h.02c.29-.57,.96-1.08,1.87-1.08,.73,0,1.96,.44,1.96,2.41v3.54Z"/>
          <path d="M229.2,0c.76,.99,1.57,2.54,1.57,4.92s-.8,3.89-1.57,4.92h-.72c.86-1.18,1.53-2.75,1.53-4.93s-.65-3.7-1.53-4.91h.72Z"/>
        </g>
        <g>
          <path d="M0,4.82C0,2.02,1.09,.67,2.58,.67s2.44,1.43,2.44,4.04c0,2.77-.97,4.2-2.56,4.2-1.45,0-2.46-1.43-2.46-4.1Zm4.13-.06c0-1.99-.48-3.37-1.6-3.37-.95,0-1.62,1.27-1.62,3.37s.59,3.43,1.59,3.43c1.18,0,1.63-1.54,1.63-3.43Z"/>
          <g>
            <path d="M39.54,.79v.74h-2.87l-.33,2.26c.17-.02,.34-.04,.62-.04,1.42,0,2.69,.84,2.69,2.45s-1.17,2.71-2.75,2.71c-.8,0-1.47-.23-1.83-.47l.26-.69c.3,.2,.89,.45,1.58,.45,1,0,1.87-.74,1.86-1.89,0-1.1-.7-1.87-2.2-1.87-.43,0-.76,.03-1.02,.07l.5-3.72h3.51Z"/>
            <path d="M40.88,4.82c0-2.79,1.09-4.15,2.58-4.15s2.44,1.43,2.44,4.04c0,2.77-.97,4.2-2.56,4.2-1.45,0-2.46-1.43-2.46-4.1Zm4.13-.06c0-1.99-.48-3.37-1.6-3.37-.95,0-1.62,1.27-1.62,3.37s.59,3.43,1.59,3.43c1.18,0,1.63-1.54,1.63-3.43Z"/>
          </g>
          <g>
            <path d="M72.35,8.78V1.63h-.02l-1.31,.76-.21-.66,1.65-.93h.76v7.99h-.86Z"/>
            <path d="M75.89,4.82c0-2.79,1.09-4.15,2.58-4.15s2.44,1.43,2.44,4.04c0,2.77-.97,4.2-2.56,4.2-1.45,0-2.46-1.43-2.46-4.1Zm4.13-.06c0-1.99-.48-3.37-1.6-3.37-.95,0-1.62,1.27-1.62,3.37s.59,3.43,1.59,3.43c1.18,0,1.63-1.54,1.63-3.43Z"/>
            <path d="M81.77,4.82c0-2.79,1.09-4.15,2.58-4.15s2.44,1.43,2.44,4.04c0,2.77-.97,4.2-2.56,4.2-1.45,0-2.46-1.43-2.46-4.1Zm4.13-.06c0-1.99-.48-3.37-1.6-3.37-.95,0-1.62,1.27-1.62,3.37s.59,3.43,1.59,3.43c1.18,0,1.63-1.54,1.63-3.43Z"/>
          </g>
          <g>
            <path d="M110.3,8.78V1.63h-.02l-1.31,.76-.21-.66,1.65-.93h.76v7.99h-.86Z"/>
            <path d="M118.37,.79v.74h-2.87l-.33,2.26c.17-.02,.34-.04,.62-.04,1.42,0,2.69,.84,2.69,2.45s-1.17,2.71-2.75,2.71c-.8,0-1.47-.23-1.83-.47l.26-.69c.3,.2,.89,.45,1.58,.45,1,0,1.87-.74,1.86-1.89,0-1.1-.71-1.87-2.2-1.87-.43,0-.76,.03-1.02,.07l.5-3.72h3.51Z"/>
            <path d="M119.71,4.82c0-2.79,1.09-4.15,2.58-4.15s2.44,1.43,2.44,4.04c0,2.77-.97,4.2-2.56,4.2-1.45,0-2.46-1.43-2.46-4.1Zm4.13-.06c0-1.99-.48-3.37-1.6-3.37-.95,0-1.62,1.27-1.62,3.37s.59,3.43,1.59,3.43c1.18,0,1.63-1.54,1.63-3.43Z"/>
          </g>
          <g>
            <path d="M150.72,8.78h-4.72v-.54l.78-.82c1.9-1.92,2.86-3.08,2.86-4.38,0-.85-.37-1.64-1.53-1.64-.64,0-1.22,.35-1.6,.66l-.3-.62c.49-.44,1.22-.78,2.07-.78,1.61,0,2.25,1.17,2.25,2.27,0,1.5-1.06,2.78-2.71,4.45l-.63,.66v.02h3.53v.73Z"/>
            <path d="M151.78,4.82c0-2.79,1.09-4.15,2.58-4.15s2.44,1.43,2.44,4.04c0,2.77-.97,4.2-2.56,4.2-1.45,0-2.46-1.43-2.46-4.1Zm4.13-.06c0-1.99-.48-3.37-1.6-3.37-.95,0-1.62,1.27-1.62,3.37s.59,3.43,1.59,3.43c1.18,0,1.63-1.54,1.63-3.43Z"/>
            <path d="M157.66,4.82c0-2.79,1.09-4.15,2.58-4.15s2.44,1.43,2.44,4.04c0,2.77-.97,4.2-2.56,4.2-1.45,0-2.46-1.43-2.46-4.1Zm4.13-.06c0-1.99-.48-3.37-1.6-3.37-.95,0-1.62,1.27-1.62,3.37s.59,3.43,1.59,3.43c1.18,0,1.63-1.54,1.63-3.43Z"/>
          </g>
          <g>
            <path d="M188.66,8.78h-4.72v-.54l.78-.82c1.9-1.92,2.86-3.08,2.86-4.38,0-.85-.37-1.64-1.53-1.64-.64,0-1.21,.35-1.6,.66l-.3-.62c.49-.44,1.22-.78,2.07-.78,1.61,0,2.25,1.17,2.25,2.27,0,1.5-1.06,2.78-2.71,4.45l-.63,.66v.02h3.53v.73Z"/>
            <path d="M194.25,.79v.74h-2.87l-.33,2.26c.17-.02,.34-.04,.62-.04,1.42,0,2.69,.84,2.69,2.45s-1.17,2.71-2.75,2.71c-.8,0-1.47-.23-1.83-.47l.26-.69c.3,.2,.88,.45,1.58,.45,1,0,1.87-.74,1.86-1.89,0-1.1-.7-1.87-2.2-1.87-.43,0-.76,.03-1.02,.07l.5-3.72h3.51Z"/>
            <path d="M195.6,4.82c0-2.79,1.09-4.15,2.58-4.15s2.44,1.43,2.44,4.04c0,2.77-.97,4.2-2.56,4.2-1.45,0-2.46-1.43-2.46-4.1Zm4.13-.06c0-1.99-.48-3.37-1.6-3.37-.95,0-1.62,1.27-1.62,3.37s.59,3.43,1.59,3.43c1.18,0,1.63-1.54,1.63-3.43Z"/>
          </g>
        </g>
        <rect class="cls-1" x="2.51" y="37.5" width="198.07" height="40"/>
        <rect class="cls-1" x="2.51" y="93.66" width="100.93" height="40"/>
        <rect class="cls-1" x="2.51" y="149.82" width="37.19" height="40"/>
        <rect class="cls-1" x="2.51" y="225.98" width="6.07" height="40"/>
        <g>
          <path class="cls-2" d="M49.17,54.75h-.04l-1.94,.92-.49-1.45,2.76-1.31h1.57v9.16h-1.86v-7.33Z"/>
          <path class="cls-2" d="M59.98,52.42c-.05,.1-.16,.16-.34,.14-.3,.77-.65,1.55-1.03,2.29l.44,.12c-.02,.11-.11,.19-.31,.2v7.98h-1.39v-6.16c-.34,.49-.68,.95-1.04,1.34-.13-.36-.48-1.1-.68-1.45,1.06-1.12,2.12-3.09,2.76-5.01l1.59,.55Zm7.22,8.85v1.36h-7.83v-1.36h7.83Zm-4.75-7.27v-2.14l1.78,.1c-.01,.12-.1,.19-.32,.23v1.81h3.05v1.37h-7.34v-1.37h2.84Zm-1.34,6.86c-.05-1.17-.36-3.19-.74-4.74l1.32-.23c.42,1.52,.78,3.47,.86,4.67l-1.44,.3Zm3.8,.1c-.07-.04-1.28-.37-1.28-.38,.42-1.25,.85-3.24,1.06-4.75l1.78,.43c-.04,.1-.17,.17-.35,.18-.26,1.44-.77,3.31-1.2,4.52Zm.01,0h0Z"/>
          <path class="cls-2" d="M71.6,54.63c0,.61-.5,1.1-1.12,1.1s-1.12-.49-1.12-1.1,.5-1.12,1.12-1.12,1.12,.52,1.12,1.12Zm0,5.71c0,.62-.5,1.12-1.12,1.12s-1.12-.49-1.12-1.12,.5-1.1,1.12-1.1,1.12,.52,1.12,1.1Z"/>
          <path class="cls-2" d="M80.17,53.92h4.31v6.04h-1.51v-.61h-2.79v3.78h-1.51v-3.78h-2.69v.67h-1.45v-6.1h4.14v-2.1l1.85,.11c-.01,.12-.1,.19-.34,.23v1.76Zm-4.2,4.02h2.69v-2.6h-2.69v2.6Zm4.2,0h2.79v-2.6h-2.79v2.6Z"/>
          <path class="cls-2" d="M86.34,52.35h10.31v10.82h-1.5v-.53h-7.38v.53h-1.44v-10.82Zm1.44,8.96h7.38v-7.63h-7.38v7.63Zm5.89-1.86h.96v1.2h-6.27v-1.2h2.42v-1.52h-1.97v-1.15h1.97v-1.24h-2.29v-1.19h5.95v1.19h-2.33v1.24h2.08v1.15h-.74c.35,.35,.76,.83,.96,1.13l-.73,.4Zm-1.56-1.52v1.52h1.24c-.2-.32-.55-.77-.84-1.09l.86-.43h-1.26Z"/>
          <path class="cls-2" d="M103.15,51.89c-1.31,1.09-2.38,3.19-2.38,5.6s1.09,4.53,2.38,5.6v.06h-1.12c-1.24-1.09-2.24-3.21-2.24-5.66s1.01-4.57,2.24-5.66h1.12v.06Z"/>
          <path class="cls-2" d="M114.07,54l.77,.05c0,.12-.01,.31-.02,.47-.14,5.42-.29,7.3-.75,7.92-.38,.54-.82,.71-2.06,.71-.32,0-.66-.01-1-.02-.02-.38-.2-.97-.46-1.36,.76,.06,1.44,.06,1.75,.06,.24,0,.37-.04,.52-.2,.35-.36,.48-2.11,.6-6.25h-3.01c-.29,.64-.61,1.21-.95,1.68-.25-.22-.73-.55-1.09-.74,.42,.65,.8,1.36,.97,1.88-.41,.22-.76,.41-1.1,.6-.05-.18-.13-.4-.23-.62l-.9,.06v4.93h-1.32v-3.83c-.04,.07-.13,.1-.24,.08-.14,1-.42,2.15-.78,2.88-.26-.18-.76-.41-1.07-.53,.33-.66,.55-1.8,.67-2.83l1.42,.35v-.97c-.59,.04-1.1,.06-1.54,.08-.04,.11-.13,.16-.23,.17l-.28-1.44h.88c.2-.25,.42-.52,.64-.8-.37-.49-.96-1.08-1.46-1.51l.66-.98,.26,.22c.42-.68,.84-1.52,1.08-2.19l1.44,.59c-.05,.1-.17,.14-.32,.13-.34,.67-.9,1.56-1.37,2.22,.18,.18,.34,.35,.47,.5,.49-.71,.94-1.43,1.27-2.05l1.4,.65c-.06,.08-.18,.12-.35,.12-.6,.94-1.51,2.13-2.36,3.09l1.5-.02c-.18-.3-.36-.6-.54-.88,.38-.2,.71-.36,1.02-.52,.12,.17,.23,.34,.35,.52,.75-1.01,1.38-2.72,1.73-4.37l1.7,.43c-.04,.11-.14,.17-.32,.16-.13,.53-.29,1.07-.48,1.6h3.14Zm-6.07,7.72c-.13-.65-.48-1.67-.8-2.43l1.13-.37c.34,.76,.71,1.71,.86,2.36l-1.19,.44Zm2.64-4.95c.62,.84,1.32,1.95,1.57,2.72l-1.26,.65c-.22-.74-.86-1.92-1.48-2.78l1.16-.59Z"/>
          <path class="cls-2" d="M121.68,62.04h-5.67v-1.09l1.01-1.08c1.72-1.78,2.72-2.94,2.72-4.16,0-.79-.42-1.45-1.42-1.45-.66,0-1.27,.35-1.69,.66l-.49-1.27c.56-.43,1.5-.82,2.54-.82,1.94,0,2.83,1.24,2.83,2.71,0,1.61-1.09,2.93-2.41,4.26l-.75,.74v.02h3.33v1.48Z"/>
          <path class="cls-2" d="M124.57,56.88c.4-.48,1.02-.8,1.8-.8,1.4,0,2.48,1.07,2.48,2.88,0,1.72-1.12,3.23-2.95,3.23-2.05,0-3.15-1.64-3.15-3.86,0-2.08,.93-5.47,5.25-5.47v1.37c-.23,0-.48,.02-.78,.06-1.67,.23-2.46,1.4-2.69,2.6h.04Zm2.52,2.16c0-.95-.46-1.73-1.28-1.73-.53,0-1.29,.46-1.29,1.47,.02,1.18,.5,2.11,1.38,2.11,.78,0,1.2-.84,1.2-1.86Z"/>
          <path class="cls-2" d="M132.19,62.04v-7.48h-.02l-1.56,.82-.38-1.27,2.21-1.13h1.49v9.07h-1.73Z"/>
          <path class="cls-2" d="M147.42,54.09h-5.6c-.05,.07-.16,.13-.3,.14-.04,.59-.07,1.19-.12,1.8h4.05l.88,.08c0,.12-.02,.32-.05,.47-.17,3.85-.4,5.34-.89,5.89-.41,.49-.89,.65-2.25,.65-.37,0-.78-.01-1.19-.02-.04-.43-.24-1.06-.53-1.46,.88,.07,1.72,.07,2.12,.07,.22,0,.36-.04,.49-.16,.32-.3,.52-1.51,.65-4.09h-3.48c-.37,2.19-1.27,4.33-3.72,5.71-.22-.41-.65-.91-1.04-1.21,3.33-1.71,3.44-4.94,3.53-7.87h-3.23v-1.44h10.67v1.44Z"/>
          <path class="cls-2" d="M149.17,54.14l1.75-.52v1.74h1.48v1.31h-1.48v2.9c0,.8,.25,1.14,.79,1.14,.25,0,.4-.02,.58-.06l.02,1.36c-.24,.1-.67,.16-1.19,.16-1.92,0-1.96-1.67-1.96-2.41v-3.08h-.88v-1.31h.88v-1.22Z"/>
          <path class="cls-2" d="M153.04,63.09c1.31-1.09,2.38-3.19,2.38-5.6s-1.09-4.53-2.38-5.6v-.06h1.12c1.25,1.09,2.24,3.21,2.24,5.66s-1,4.57-2.24,5.66h-1.12v-.06Z"/>
        </g>
        <g>
          <path d="M48.68,166.04c.56-.47,1.68-.89,2.86-.89,1.89,0,2.88,1.03,2.88,2.22,0,1.03-.59,1.86-1.85,2.22v.02c1.19,.14,2.18,.91,2.18,2.24s-1.17,2.67-3.56,2.67c-1.2,0-2.18-.35-2.81-.84l.43-1.12c.43,.34,1.32,.76,2.33,.76,1.42,0,2.03-.8,2.03-1.55,0-1.18-1.18-1.56-2.33-1.56h-.91v-1.1h.91c.97,0,2.04-.49,2.04-1.49,0-.7-.54-1.28-1.62-1.28-.86,0-1.75,.42-2.15,.77l-.43-1.08Z"/>
          <path d="M59.56,168.94c-.39,.6-.81,1.15-1.23,1.63-.11-.28-.4-.85-.55-1.13,1.09-1.18,2.2-3.19,2.87-5.19l1.29,.44c-.05,.1-.14,.13-.31,.13-.3,.8-.66,1.61-1.06,2.38l.37,.11c-.01,.1-.1,.16-.26,.18v7.95h-1.12v-6.5Zm1.79,4.86h7.94v1.08h-7.94v-1.08Zm.28-7.3h3.01v-2.27l1.43,.08c-.01,.1-.08,.17-.28,.19v1.99h3.23v1.08h-7.39v-1.08Zm1.87,1.75c.46,1.56,.85,3.59,.95,4.8l-1.14,.24c-.07-1.21-.42-3.27-.84-4.86l1.03-.18Zm2.31,4.81c.44-1.28,.92-3.36,1.16-4.88l1.43,.35c-.04,.1-.16,.16-.32,.17-.28,1.45-.8,3.42-1.26,4.67l-1.01-.3Z"/>
          <path d="M73.59,166.91c0,.54-.43,.97-.97,.97s-.97-.43-.97-.97,.43-.97,.97-.97,.97,.46,.97,.97Zm0,5.78c0,.54-.43,.97-.97,.97s-.97-.43-.97-.97,.43-.97,.97-.97,.97,.46,.97,.97Z"/>
          <path d="M86.06,167.27v1.14h-2.75c-.02,.07-.12,.13-.23,.14-.4,2.67-1.46,5.06-3.95,6.51-.26-.22-.73-.54-1.06-.73,2.36-1.28,3.47-3.48,3.77-5.92h-2.97c-.54,.91-1.19,1.75-1.82,2.37-.26-.19-.74-.43-1.08-.59,1.39-1.2,2.67-3.51,3.2-5.65l1.54,.34c-.04,.1-.16,.18-.34,.18-.21,.64-.58,1.5-.92,2.21h6.61Z"/>
          <path d="M97.21,172.62v1.16h-9.94v-1.16h9.94Zm-1.19-6.4v1.16h-7.51v-1.16h7.51Z"/>
          <path d="M108.48,165.68c-.04,.07-.12,.12-.2,.16-.6,1.42-1.62,2.88-2.69,3.84-.24-.2-.73-.49-1.04-.66,.92-.71,1.71-1.78,2.06-2.64h-8.16v-1.14h8.83l.16-.1,1.04,.54Zm-4.63,2.25c-.02,.12-.13,.2-.31,.23-.32,2.72-1.31,5.43-3.74,6.87-.25-.2-.7-.59-1.02-.77,2.35-1.27,3.26-3.72,3.49-6.49l1.58,.16Z"/>
          <path d="M114.23,164.25c-1.31,1.09-2.37,3.14-2.37,5.55s1.1,4.49,2.37,5.55v.06h-.91c-1.22-1.09-2.27-3.15-2.27-5.61s1.04-4.52,2.27-5.61h.91v.06Z"/>
          <path d="M116.81,171.5c-.04,.08-.11,.13-.25,.12-.17,1.01-.48,2.16-.86,2.88-.2-.14-.6-.32-.85-.42,.37-.67,.62-1.81,.78-2.87l1.19,.29Zm2.86-5.4c-.05,.08-.14,.12-.3,.12-.63,.98-1.62,2.28-2.51,3.29l1.93-.04c-.2-.35-.43-.7-.65-1.01,.36-.19,.59-.3,.82-.42,.59,.77,1.21,1.79,1.44,2.47-.37,.22-.62,.35-.88,.48-.06-.19-.16-.42-.28-.66l-1.13,.07v5.03h-1.06v-4.98c-.66,.04-1.26,.07-1.74,.08-.02,.11-.11,.16-.19,.17l-.25-1.17h.88c.25-.29,.52-.6,.77-.94-.38-.52-1.02-1.14-1.56-1.6l.54-.75c.1,.08,.2,.17,.31,.25,.44-.7,.92-1.61,1.2-2.3l1.18,.49c-.06,.1-.18,.12-.3,.11-.35,.68-.94,1.62-1.42,2.28,.25,.24,.48,.49,.66,.71,.53-.76,1.03-1.55,1.39-2.21l1.14,.53Zm-.4,7.82c-.13-.66-.49-1.67-.84-2.43l.89-.3c.37,.76,.74,1.73,.9,2.38l-.95,.36Zm6.04-7.51l.6,.05c0,.08-.01,.24-.01,.37-.17,5.52-.34,7.39-.82,8-.38,.5-.77,.6-1.83,.6-.35,0-.74-.01-1.13-.04-.01-.31-.16-.78-.36-1.08,.79,.06,1.51,.06,1.81,.06,.24,0,.38-.04,.53-.19,.36-.4,.54-2.2,.68-6.68h-3.37c-.3,.68-.65,1.31-1.01,1.8-.22-.19-.66-.48-.94-.64,.78-1.02,1.45-2.78,1.83-4.47l1.38,.35c-.05,.1-.14,.16-.3,.14-.14,.58-.32,1.16-.54,1.74h3.47Zm-3.67,2.71c.66,.84,1.38,1.99,1.65,2.76l-.99,.53c-.25-.77-.92-1.95-1.57-2.83l.91-.46Z"/>
          <path d="M131.97,174.36h-1.31v-2.39h-3.78v-.9l3.54-5.75h1.55v5.59h1.13v1.06h-1.13v2.39Zm-3.78-3.44h2.47v-2.71c0-.52,.02-1.06,.06-1.57h-.05c-.28,.58-.5,1.02-.76,1.5l-1.73,2.76v.02Z"/>
          <path d="M138.22,170.27c-.43,.52-1.07,.84-1.87,.84-1.46,0-2.5-1.13-2.5-2.75s1.14-3.18,2.93-3.18,2.88,1.57,2.88,3.79c0,2.89-1.43,5.16-4.1,5.44-.37,.06-.73,.07-.98,.06v-1.12c.26,.02,.52,0,.89-.05,1.96-.26,2.62-1.92,2.79-3.05h-.04Zm-2.97-1.99c0,1.07,.55,1.85,1.46,1.85,.66,0,1.17-.38,1.44-.85,.06-.12,.1-.28,.1-.53,0-1.49-.52-2.54-1.54-2.54-.86,0-1.46,.86-1.46,2.07Z"/>
          <path d="M151.44,166.19h-5.81c-.06,.06-.14,.11-.28,.13-.04,.68-.07,1.39-.14,2.12h4.14l.26-.02,.7,.08c0,.11-.02,.26-.05,.37-.19,3.97-.41,5.45-.89,5.97-.37,.42-.78,.55-1.98,.55-.41,0-.88-.02-1.34-.05-.02-.35-.19-.83-.42-1.15,.9,.07,1.75,.08,2.1,.08,.28,0,.43-.02,.58-.16,.35-.32,.55-1.62,.71-4.57h-3.95c-.36,2.28-1.26,4.52-3.74,5.89-.18-.3-.53-.7-.83-.92,3.43-1.75,3.56-5.3,3.65-8.34h-3.38v-1.13h10.67v1.13Z"/>
          <path d="M153.27,166.55l1.38-.43v1.63h1.57v1.04h-1.57v3.35c0,.82,.25,1.21,.84,1.21,.28,0,.44-.04,.61-.08l.05,1.07c-.24,.1-.61,.16-1.08,.16-.55,0-1.02-.18-1.31-.5-.34-.36-.49-.91-.49-1.77v-3.42h-.94v-1.04h.94v-1.2Z"/>
          <path d="M156.92,175.36c1.31-1.09,2.38-3.14,2.38-5.55s-1.1-4.49-2.38-5.55v-.06h.91c1.23,1.09,2.27,3.15,2.27,5.61s-1.03,4.52-2.27,5.61h-.91v-.06Z"/>
        </g>
        <g>
          <path d="M114.66,118.2h-5.49v-.85l.95-1c1.91-1.96,2.96-3.2,2.96-4.56,0-.88-.42-1.64-1.56-1.64-.7,0-1.32,.37-1.74,.71l-.42-1c.55-.46,1.43-.84,2.44-.84,1.86,0,2.67,1.26,2.67,2.63,0,1.66-1.13,3.04-2.7,4.62l-.74,.75v.02h3.63v1.15Z"/>
          <path d="M117.3,112.78c-.39,.6-.81,1.15-1.23,1.63-.11-.28-.4-.85-.55-1.13,1.09-1.18,2.2-3.19,2.87-5.19l1.29,.44c-.05,.1-.14,.13-.31,.13-.3,.8-.66,1.61-1.06,2.38l.37,.11c-.01,.1-.1,.16-.26,.18v7.95h-1.12v-6.5Zm1.79,4.86h7.94v1.08h-7.94v-1.08Zm.28-7.3h3.01v-2.27l1.43,.08c-.01,.1-.08,.17-.28,.19v1.99h3.23v1.08h-7.39v-1.08Zm1.87,1.75c.46,1.56,.85,3.59,.95,4.8l-1.14,.24c-.07-1.21-.42-3.27-.84-4.86l1.03-.18Zm2.31,4.81c.44-1.28,.92-3.36,1.16-4.88l1.43,.35c-.04,.1-.16,.16-.32,.17-.28,1.45-.8,3.42-1.26,4.67l-1.01-.3Z"/>
          <path d="M131.33,110.75c0,.54-.43,.97-.97,.97s-.97-.43-.97-.97,.43-.97,.97-.97,.97,.46,.97,.97Zm0,5.78c0,.54-.43,.97-.97,.97s-.97-.43-.97-.97,.43-.97,.97-.97,.97,.46,.97,.97Z"/>
          <path d="M143.62,109.34c-.06,.06-.14,.11-.26,.11-.04,0-.07,0-.12-.01-.92,.92-2.16,1.96-3.31,2.79,.11,.05,.25,.11,.32,.13-.02,.1-.13,.18-.29,.2v6.33h-1.26v-5.89c-1.18,.82-2.79,1.74-4.26,2.46-.17-.28-.48-.7-.72-.92,3.2-1.45,6.79-3.97,8.67-6.12l1.22,.91Z"/>
          <path d="M145.16,109.26c1.22,.37,2.66,1.01,3.54,1.6l-.62,1.08c-.86-.6-2.29-1.24-3.48-1.66l.56-1.02Zm-.23,8.2c4.14-1.27,6.94-3.65,8.36-6.96,.35,.28,.76,.5,1.1,.7-1.49,3.27-4.39,5.84-8.41,7.22-.01,.12-.1,.24-.19,.29l-.86-1.25Z"/>
          <path d="M162.41,114.97c-1.1-.62-2.72-1.38-3.97-1.87v5.77h-1.26v-10.49l1.61,.1c-.01,.13-.12,.23-.35,.28v3.45l.24-.34c1.37,.5,3.19,1.31,4.4,1.96l-.67,1.15Zm-1.1-5.85c.5,.41,1.19,1.15,1.57,1.69l-.58,.49c-.32-.49-1.04-1.28-1.54-1.7l.54-.48Zm1.63-1.06c.53,.46,1.22,1.15,1.57,1.68l-.58,.47c-.34-.47-1.04-1.25-1.55-1.68l.55-.47Z"/>
          <path d="M170.17,108.09c-1.31,1.09-2.38,3.14-2.38,5.55s1.1,4.49,2.38,5.55v.06h-.91c-1.22-1.09-2.27-3.15-2.27-5.61s1.04-4.52,2.27-5.61h.91v.06Z"/>
          <path d="M172.76,115.33c-.04,.08-.11,.13-.25,.12-.17,1.01-.48,2.16-.86,2.88-.21-.14-.6-.32-.85-.42,.37-.67,.62-1.81,.78-2.87l1.19,.29Zm2.85-5.4c-.05,.08-.14,.12-.3,.12-.64,.98-1.62,2.28-2.51,3.29l1.93-.04c-.2-.35-.43-.7-.65-1.01,.36-.19,.59-.3,.82-.42,.59,.77,1.21,1.79,1.44,2.47-.37,.22-.62,.35-.88,.48-.06-.19-.16-.42-.28-.66l-1.13,.07v5.03h-1.05v-4.98c-.66,.04-1.26,.07-1.74,.08-.02,.11-.11,.16-.19,.17l-.25-1.17h.88c.25-.29,.52-.6,.77-.94-.38-.52-1.02-1.14-1.56-1.6l.54-.75c.1,.08,.2,.17,.31,.25,.44-.7,.92-1.61,1.2-2.3l1.18,.49c-.06,.1-.18,.12-.3,.11-.35,.68-.94,1.62-1.42,2.28,.25,.24,.48,.49,.66,.71,.53-.76,1.03-1.55,1.39-2.21l1.14,.53Zm-.4,7.82c-.13-.66-.49-1.67-.84-2.43l.89-.3c.37,.76,.74,1.73,.9,2.38l-.95,.36Zm6.04-7.51l.6,.05c0,.08-.01,.24-.01,.37-.17,5.52-.33,7.39-.81,8-.38,.5-.77,.6-1.84,.6-.35,0-.74-.01-1.13-.04-.01-.31-.16-.78-.36-1.08,.79,.06,1.51,.06,1.81,.06,.24,0,.38-.04,.53-.19,.36-.4,.54-2.2,.68-6.68h-3.37c-.3,.68-.65,1.31-1.01,1.8-.22-.19-.66-.48-.94-.64,.78-1.02,1.45-2.78,1.83-4.47l1.38,.35c-.05,.1-.14,.16-.3,.14-.14,.58-.32,1.16-.54,1.74h3.47Zm-3.67,2.71c.66,.84,1.38,1.99,1.66,2.76l-1,.53c-.25-.77-.92-1.95-1.57-2.83l.91-.46Z"/>
          <path d="M185.61,118.2v-7.76h-.02l-1.52,.84-.31-1.02,2.04-1.09h1.17v9.03h-1.35Z"/>
          <path d="M193.3,113.33c1.02,.19,1.89,1.02,1.89,2.29,0,1.47-1.13,2.71-3.18,2.71-.94,0-1.78-.28-2.21-.56l.36-1.07c.32,.22,1.04,.52,1.79,.52,1.28,0,1.81-.84,1.81-1.64,0-1.16-.98-1.7-2.05-1.7h-.61v-1h.59c.78,0,1.8-.47,1.8-1.46,0-.71-.46-1.27-1.42-1.27-.64,0-1.26,.3-1.61,.54l-.35-1c.46-.34,1.33-.66,2.27-.66,1.69,0,2.52,1.02,2.52,2.17,0,.92-.58,1.73-1.61,2.11v.02Z"/>
          <path d="M200.04,113.33c1.02,.19,1.89,1.02,1.89,2.29,0,1.47-1.13,2.71-3.18,2.71-.94,0-1.78-.28-2.21-.56l.36-1.07c.32,.22,1.04,.52,1.79,.52,1.28,0,1.81-.84,1.81-1.64,0-1.16-.98-1.7-2.05-1.7h-.61v-1h.59c.78,0,1.8-.47,1.8-1.46,0-.71-.46-1.27-1.42-1.27-.64,0-1.26,.3-1.61,.54l-.35-1c.46-.34,1.33-.66,2.27-.66,1.69,0,2.52,1.02,2.52,2.17,0,.92-.58,1.73-1.61,2.11v.02Z"/>
          <path d="M214.13,110.03h-5.8c-.06,.06-.14,.11-.28,.13-.04,.68-.07,1.39-.14,2.12h4.14l.26-.02,.7,.08c0,.11-.02,.26-.05,.37-.19,3.97-.41,5.45-.89,5.97-.37,.42-.78,.55-1.98,.55-.41,0-.88-.02-1.34-.05-.02-.35-.19-.83-.42-1.15,.9,.07,1.75,.08,2.1,.08,.28,0,.43-.02,.58-.16,.35-.32,.55-1.62,.71-4.57h-3.95c-.36,2.28-1.26,4.52-3.74,5.89-.18-.3-.53-.7-.83-.92,3.43-1.75,3.56-5.3,3.65-8.34h-3.38v-1.13h10.67v1.13Z"/>
          <path d="M215.96,110.39l1.38-.43v1.63h1.57v1.04h-1.57v3.35c0,.82,.25,1.21,.84,1.21,.28,0,.44-.04,.61-.08l.05,1.07c-.24,.1-.61,.16-1.08,.16-.55,0-1.02-.18-1.31-.5-.34-.36-.49-.91-.49-1.77v-3.42h-.94v-1.04h.94v-1.2Z"/>
          <path d="M219.61,119.19c1.31-1.09,2.37-3.14,2.37-5.55s-1.1-4.49-2.37-5.55v-.06h.91c1.24,1.09,2.27,3.15,2.27,5.61s-1.03,4.52-2.27,5.61h-.91v-.06Z"/>
        </g>
        <g>
          <path d="M19.16,250.52v-7.76h-.02l-1.52,.84-.31-1.02,2.04-1.09h1.18v9.03h-1.36Z"/>
          <path d="M25.91,250.52v-7.76h-.02l-1.52,.84-.31-1.02,2.04-1.09h1.18v9.03h-1.36Z"/>
          <path d="M31.55,245.1c-.39,.6-.81,1.15-1.23,1.63-.11-.28-.4-.85-.55-1.13,1.09-1.18,2.2-3.19,2.87-5.19l1.29,.44c-.05,.1-.14,.13-.31,.13-.3,.8-.66,1.61-1.06,2.38l.37,.11c-.01,.1-.1,.16-.26,.18v7.95h-1.12v-6.5Zm1.79,4.86h7.94v1.08h-7.94v-1.08Zm.28-7.3h3.01v-2.27l1.43,.08c-.01,.1-.08,.17-.28,.19v1.99h3.23v1.08h-7.39v-1.08Zm1.87,1.75c.46,1.56,.85,3.59,.95,4.8l-1.14,.24c-.07-1.21-.42-3.27-.84-4.86l1.03-.18Zm2.31,4.81c.44-1.28,.92-3.36,1.16-4.88l1.43,.35c-.04,.1-.16,.16-.32,.17-.28,1.45-.8,3.42-1.26,4.67l-1.01-.3Z"/>
          <path d="M45.57,243.08c0,.54-.43,.97-.97,.97s-.97-.43-.97-.97,.43-.97,.97-.97,.97,.46,.97,.97Zm0,5.78c0,.54-.43,.97-.97,.97s-.97-.43-.97-.97,.43-.97,.97-.97,.97,.46,.97,.97Z"/>
          <path d="M49.2,241.1h7.99v10.27h-1.21v-.74h-5.61v.79h-1.16v-10.31Zm6.78,1.15h-5.61v3.01h5.61v-3.01Zm-5.61,7.22h5.61v-3.08h-5.61v3.08Z"/>
          <path d="M69.96,243.97h-4.03c.98,1.97,2.66,3.78,4.5,4.71-.28,.23-.67,.7-.86,1.01-1.74-1-3.26-2.72-4.33-4.7v3.26h2.2v1.15h-2.2v2.17h-1.2v-2.17h-2.24v-1.15h2.24v-3.26c-1.08,2-2.59,3.71-4.3,4.74-.19-.29-.56-.72-.82-.95,1.79-.95,3.44-2.81,4.44-4.81h-4.01v-1.15h4.69v-2.47l1.49,.1c-.01,.1-.1,.17-.29,.2v2.17h4.73v1.15Z"/>
          <path d="M76.26,240.41c-1.31,1.09-2.38,3.14-2.38,5.55s1.1,4.49,2.38,5.55v.06h-.91c-1.22-1.09-2.27-3.15-2.27-5.61s1.04-4.52,2.27-5.61h.91v.06Z"/>
          <path d="M78.84,247.66c-.04,.08-.11,.13-.25,.12-.17,1.01-.48,2.16-.86,2.88-.21-.14-.6-.32-.85-.42,.37-.67,.62-1.81,.78-2.87l1.19,.29Zm2.85-5.4c-.05,.08-.14,.12-.3,.12-.64,.98-1.62,2.28-2.51,3.29l1.93-.04c-.2-.35-.43-.7-.65-1.01,.36-.19,.59-.3,.82-.42,.59,.77,1.21,1.79,1.44,2.47-.37,.22-.62,.35-.88,.48-.06-.19-.16-.42-.28-.66l-1.13,.07v5.03h-1.05v-4.98c-.66,.04-1.26,.07-1.74,.08-.02,.11-.11,.16-.19,.17l-.25-1.17h.88c.25-.29,.52-.6,.77-.94-.38-.52-1.02-1.14-1.56-1.6l.54-.75c.1,.08,.2,.17,.31,.25,.44-.7,.92-1.61,1.2-2.3l1.18,.49c-.06,.1-.18,.12-.3,.11-.35,.68-.94,1.62-1.42,2.28,.25,.24,.48,.49,.66,.71,.53-.76,1.03-1.55,1.39-2.21l1.14,.53Zm-.4,7.82c-.13-.66-.49-1.67-.84-2.43l.89-.3c.37,.76,.74,1.73,.9,2.38l-.95,.36Zm6.04-7.51l.6,.05c0,.08-.01,.24-.01,.37-.17,5.52-.33,7.39-.81,8-.38,.5-.77,.6-1.84,.6-.35,0-.74-.01-1.13-.04-.01-.31-.16-.78-.36-1.08,.79,.06,1.51,.06,1.81,.06,.24,0,.38-.04,.53-.19,.36-.4,.54-2.2,.68-6.68h-3.37c-.3,.68-.65,1.31-1.01,1.8-.22-.19-.66-.48-.94-.64,.78-1.02,1.45-2.78,1.83-4.47l1.38,.35c-.05,.1-.14,.16-.3,.14-.14,.58-.32,1.16-.54,1.74h3.47Zm-3.67,2.71c.66,.84,1.38,1.99,1.66,2.76l-1,.53c-.25-.77-.92-1.95-1.57-2.83l.91-.46Z"/>
          <path d="M90.77,245.76c-.9-.47-1.34-1.24-1.34-2.01,0-1.44,1.16-2.4,2.67-2.4,1.73,0,2.53,1.14,2.53,2.23,0,.77-.41,1.58-1.39,2.09v.04c.98,.43,1.69,1.22,1.69,2.33,0,1.57-1.25,2.63-2.95,2.63-1.85,0-2.87-1.15-2.87-2.42,0-1.15,.68-1.98,1.66-2.43v-.04Zm2.76,2.4c0-1.01-.67-1.57-1.65-1.9-.88,.3-1.36,1-1.36,1.8,0,.89,.58,1.61,1.5,1.61s1.51-.68,1.51-1.51Zm-2.78-4.5c0,.83,.59,1.32,1.44,1.61,.62-.25,1.13-.84,1.13-1.56s-.36-1.39-1.26-1.39-1.31,.66-1.31,1.34Z"/>
          <path d="M106.72,242.36h-5.8c-.06,.06-.14,.11-.28,.13-.04,.68-.07,1.39-.14,2.12h4.14l.26-.02,.7,.08c0,.11-.02,.26-.05,.37-.19,3.97-.41,5.45-.89,5.97-.37,.42-.78,.55-1.98,.55-.41,0-.88-.02-1.34-.05-.02-.35-.19-.83-.42-1.15,.9,.07,1.75,.08,2.1,.08,.28,0,.43-.02,.58-.16,.35-.32,.55-1.62,.71-4.57h-3.95c-.36,2.28-1.26,4.52-3.74,5.89-.18-.3-.53-.7-.83-.92,3.43-1.75,3.56-5.3,3.65-8.34h-3.38v-1.13h10.67v1.13Z"/>
          <path d="M108.55,242.72l1.38-.43v1.63h1.57v1.04h-1.57v3.35c0,.82,.25,1.21,.84,1.21,.28,0,.44-.04,.61-.08l.05,1.07c-.24,.1-.61,.16-1.08,.16-.55,0-1.02-.18-1.31-.5-.34-.36-.49-.91-.49-1.77v-3.42h-.94v-1.04h.94v-1.2Z"/>
          <path d="M112.2,251.52c1.31-1.09,2.37-3.14,2.37-5.55s-1.1-4.49-2.37-5.55v-.06h.91c1.24,1.09,2.27,3.15,2.27,5.61s-1.03,4.52-2.27,5.61h-.91v-.06Z"/>
        </g>
        <path d="M17.86,210.3c0,.48-.38,.86-.86,.86s-.86-.38-.86-.86,.38-.86,.86-.86c.5,0,.86,.41,.86,.86Zm3.99,0c0,.48-.38,.86-.86,.86s-.86-.38-.86-.86,.38-.86,.86-.86c.5,0,.86,.41,.86,.86Zm3.99,0c0,.48-.38,.86-.86,.86s-.86-.38-.86-.86,.38-.86,.86-.86,.86,.41,.86,.86Z"/>
        <g>
          <line class="cls-3" x1="40.46" y1="15.59" x2="40.46" y2="22.2"/>
          <line class="cls-3" x1="78.4" y1="15.59" x2="78.4" y2="22.2"/>
          <line class="cls-3" x1="116.35" y1="15.59" x2="116.35" y2="22.2"/>
          <line class="cls-3" x1="154.29" y1="15.59" x2="154.29" y2="22.2"/>
          <line class="cls-3" x1="192.23" y1="15.59" x2="192.23" y2="22.2"/>
          <line class="cls-3" x1="230.18" y1="15.59" x2="230.18" y2="22.2"/>
        </g>
        <polyline class="cls-3" points="2.51 280.23 2.51 15.59 230.18 15.59"/>
      </g>
    </g>
  </g>
</svg>