<svg xmlns="http://www.w3.org/2000/svg" width="40" height="40" viewBox="0 0 40 40">
  <defs>
    <style>
      .cls-1 {
        fill: #030;
      }
    </style>
  </defs>
  <g id="レイヤー_2" data-name="レイヤー 2">
    <g id="レイヤー_1-2" data-name="レイヤー 1">
      <g>
        <path class="cls-1" d="M20,2.5A17.5,17.5,0,1,1,2.5,20,17.52,17.52,0,0,1,20,2.5M20,0A20,20,0,1,0,40,20,20,20,0,0,0,20,0Z"/>
        <path class="cls-1" d="M22.92,13c-.09.38-.47.58-1.42.67,2.61,3.33,8,5.13,12.44,5.94V20A4.1,4.1,0,0,0,31.3,23.3C26.55,21.45,22.8,18.43,21,14c-2.67,4.3-8.52,8.39-14.82,10.27l-.14-.35c5.33-2.69,10.5-8.12,11.66-12.12ZM6.65,11l-.21-.84h7V6.39l4.32.38c-.06.41-.26.67-1,.78v2.56H23V6.39l4.41.38c0,.41-.26.67-1,.78v2.56h2.23l1.77-2.38s2,1.62,3.13,2.75c-.05.32-.37.47-.78.47H26.43v2.32c0,.29-1.28.75-2.84.75H23V11H16.71v2.46c0,.29-1.3.76-2.75.76h-.55V11ZM8,32.24a19.85,19.85,0,0,0,5.8-7.69l3.89,2c-.15.29-.41.47-1.1.38a19.4,19.4,0,0,1-8.36,5.63Zm13.63-8.85v9.34c0,.26-1.5.87-2.75.87h-.61V23.39h-6.5l-.23-.84h6.73V18.78l4.32.38c-.09.37-.26.63-1,.75v2.64h1.74L25,20.35s1.91,1.5,3.07,2.58c-.09.32-.4.46-.81.46Zm1.31,1.8c10.38,1.39,8.64,8.44,5,6.58a20.45,20.45,0,0,0-5.28-6.38Z"/>
      </g>
    </g>
  </g>
</svg>
