<svg xmlns="http://www.w3.org/2000/svg" width="30" height="30" viewBox="0 0 30 30">
  <defs>
    <style>
      .cls-1 {
        fill: #fff;
      }
    </style>
  </defs>
  <g id="レイヤー_2" data-name="レイヤー 2">
    <g id="レイヤー_1-2" data-name="レイヤー 1">
      <g>
        <path class="cls-1" d="M15,2A13,13,0,1,1,2,15,13,13,0,0,1,15,2m0-2A15,15,0,1,0,30,15,15,15,0,0,0,15,0Z"/>
        <path class="cls-1" d="M17.11,9.92c-.06.27-.34.42-1,.48,1.89,2.42,5.75,3.72,9,4.31V15a3,3,0,0,0-1.91,2.38c-3.45-1.35-6.16-3.53-7.44-6.77C13.81,13.74,9.57,16.7,5,18.07l-.1-.25c3.86-2,7.6-5.88,8.44-8.78ZM5.33,8.45l-.15-.61h5V5.15l3.13.28c0,.29-.19.48-.74.56V7.84h4.58V5.15l3.19.28c0,.29-.19.48-.73.56V7.84h1.62l1.28-1.72s1.44,1.18,2.26,2c0,.23-.27.33-.56.33h-4.6v1.68c0,.21-.93.55-2.06.55h-.4V8.45H12.61v1.79c0,.21-.94.54-2,.54h-.4V8.45Zm1,15.41a14.49,14.49,0,0,0,4.19-5.56l2.82,1.47c-.11.21-.3.33-.8.27a14.07,14.07,0,0,1-6,4.07Zm9.86-6.4v6.76c0,.19-1.09.63-2,.63h-.44V17.46H9l-.16-.61h4.87V14.12l3.13.27c-.07.28-.19.46-.7.55v1.91h1.26l1.22-1.6s1.39,1.1,2.23,1.87a.56.56,0,0,1-.59.34Zm.95,1.3c7.51,1,6.25,6.11,3.65,4.77a14.48,14.48,0,0,0-3.82-4.62Z"/>
      </g>
    </g>
  </g>
</svg>
